<svg width="20" height="20" viewBox="0 0 20 20" fill="none" xmlns="http://www.w3.org/2000/svg">
<mask id="path-1-inside-1_351_2075" fill="white">
<path d="M20 10C20 15.5228 15.5228 20 10 20C4.47715 20 0 15.5228 0 10C0 4.47715 4.47715 0 10 0C15.5228 0 20 4.47715 20 10Z"/>
</mask>
<path d="M8.64078 13.0097L7.81696 13.8335L8.64078 14.6573L9.46459 13.8335L8.64078 13.0097ZM15.484 7.81411C15.939 7.35913 15.939 6.62146 15.484 6.16648C15.029 5.7115 14.2914 5.7115 13.8364 6.16648L15.484 7.81411ZM4.4189 10.4355L7.81696 13.8335L9.46459 12.1859L6.06653 8.78784L4.4189 10.4355ZM9.46459 13.8335L15.484 7.81411L13.8364 6.16648L7.81696 12.1859L9.46459 13.8335ZM17.6699 10C17.6699 14.236 14.236 17.6699 10 17.6699V22.3301C16.8097 22.3301 22.3301 16.8097 22.3301 10H17.6699ZM10 17.6699C5.76403 17.6699 2.3301 14.236 2.3301 10H-2.3301C-2.3301 16.8097 3.19028 22.3301 10 22.3301V17.6699ZM2.3301 10C2.3301 5.76403 5.76403 2.3301 10 2.3301V-2.3301C3.19028 -2.3301 -2.3301 3.19028 -2.3301 10H2.3301ZM10 2.3301C14.236 2.3301 17.6699 5.76403 17.6699 10H22.3301C22.3301 3.19028 16.8097 -2.3301 10 -2.3301V2.3301Z" fill="#2E4DFE" mask="url(#path-1-inside-1_351_2075)"/>
</svg>
